<svg id="Layer_1" data-name="Layer 1" xmlns="http://www.w3.org/2000/svg" viewBox="0 0 506.18 411.51"><path d="M256,83.88c22-33.16,49.68-58.11,86.92-71.23,84.44-29.76,161.73,23.65,166,113.19,2.62,55.48-22,99.15-55.86,139C399.64,327.71,333,374,261.91,414.43c-3,1.69-8.71,1.82-11.49.06C174.72,366.55,103,313.8,46.85,242.71c-19.69-25-36.59-51.86-41.82-83.84C-4.07,103.09,16.11,41.48,65.8,17.54c41.83-20.14,83.51-16.4,124,4.47C214.1,34.52,233.66,52.75,249.54,75,251.54,77.75,253.59,80.54,256,83.88Zm.85,25c-1.84-1.45-3-2-3.63-2.93-1.77-2.6-3.35-5.33-5-8C233.44,72.61,214,52,188.76,36.66,147.08,11.37,91.4,11,56.46,39.9c-38.17,31.55-46.1,75.06-37,121.2C27.53,202.34,54.18,234,82,263.83,128.51,313.7,182.82,354.2,239.3,392.08c11.89,8,21.11,11.3,33.08,1.21,7.15-6,16.13-9.83,24.06-15,61.72-40.2,120.23-84.12,164.06-144.57,28.47-39.27,43-82.29,31.14-131C481.48,61,458.23,30.45,414.11,21,354.71,8.34,300.76,41,270.56,86.77,265.84,93.93,261.51,101.34,256.87,108.85Z" transform="translate(-2.91 -4.24)" style="fill:#c74545"/><path d="M256.87,108.85c4.64-7.51,9-14.92,13.69-22.08C300.76,41,354.71,8.34,414.11,21c44.12,9.42,67.37,39.92,77.53,81.66,11.86,48.74-2.67,91.76-31.14,131-43.83,60.45-102.34,104.37-164.06,144.57-7.93,5.17-16.91,9-24.06,15-12,10.09-21.19,6.77-33.08-1.21C182.82,354.2,128.51,313.7,82,263.83,54.18,234,27.53,202.34,19.43,161.1c-9.07-46.14-1.14-89.65,37-121.2C91.4,11,147.08,11.37,188.76,36.66,214,52,233.44,72.61,248.29,97.87c1.6,2.72,3.18,5.45,5,8C253.87,106.84,255,107.4,256.87,108.85Z" transform="translate(-2.91 -4.24)" style="fill:#f68e8e"/></svg>