<svg id="Layer_1" data-name="Layer 1" xmlns="http://www.w3.org/2000/svg" viewBox="0 0 502.12 455.77"><path d="M129.53,408.86c5.56-12.12,2.91-24.1,1.59-36-1.85-16.61-4.16-33.2-1.28-49.9,5.12-29.6,22.62-49.35,49.07-61.57,25.1-11.59,51.79-15.9,79.09-14.24,9.07.55,18.54,4.45,26.65,9,31.07,17.34,49.73,45.11,61.47,78.1,8.34,23.43,11.44,47.8,12.1,72.57.08,3-.75,4.67-3.55,6.08-31.77,16-63.44,32.2-95.2,48.19a8.25,8.25,0,0,1-6.12.53C212.25,444.24,171.23,426.67,129.53,408.86Z" transform="translate(-3.88 -6.23)"/><path d="M4,255c0-7.6,0-14.48,0-21.36,0-58.05.21-116.09-.08-174.13,0-6.61,2.05-8.5,8-9.47,38.6-6.28,77.15-12.92,115.72-19.38a9,9,0,0,1,4.73.14c14.73,6.51,29.47,13,44,19.94,3.35,1.59,6.21,4.55,8.84,7.31,7.86,8.27,7.59,16.86-1.12,24.27-4.11,3.5-8.78,6.86-13.77,8.65-6.14,2.21-7.08,5.86-7.36,11.77-1.64,34.05-9.49,66.41-28.08,95.37C112,233.7,78.65,251.37,37.49,254.87,26.71,255.79,15.78,255,4,255Z" transform="translate(-3.88 -6.23)"/><path d="M231.46,13.11c14.16-2.39,28.57-6.17,43.11-6.83,10.61-.48,21.46,2.84,32.09,5q97.5,19.81,195,39.82c3.14.63,4.41,1.79,4.39,5.15-.13,20.77,0,41.55-.17,62.32a10.17,10.17,0,0,1-2.34,6c-16.54,19.72-35.05,37.21-57.4,50.12-16.8,9.71-34.5,15.79-54.32,12.25-13-2.32-23.13-8.88-30.86-19.66a210.23,210.23,0,0,1-27.84-54.65c-11.42-33.39-33.48-57.67-62-76.57C258.52,27.66,245,20.84,231.46,13.11Z" transform="translate(-3.88 -6.23)"/><path d="M505.93,243c0,30.45,0,60.19-.11,89.93a5.69,5.69,0,0,1-2.46,4.23c-17.36,9-34.82,17.87-52.25,26.75C428.57,317.51,457.87,267.27,505.93,243Z" transform="translate(-3.88 -6.23)"/></svg>