<svg id="Layer_1" data-name="Layer 1" xmlns="http://www.w3.org/2000/svg" viewBox="0 0 479.51 456"><g id="vTBBes"><path d="M404.68,482.33c-12.05-5.05-24.47-9.39-36.09-15.29-31.11-15.78-62.33-31.44-92.58-48.76-14.57-8.35-26.16-8.83-41.14-.66-42.24,23-85.41,44.37-128.22,66.38,5.62-36.87,11.11-73.76,16.93-110.6,2.2-13.92,4.67-27.84,8-41.53,2.6-10.85-3.18-17-10-23.63q-45.79-44.42-91.12-89.33c-5.56-5.54-9.49-12.72-14.17-19.15,49.52-6.72,99-13.67,148.58-20,12.67-1.62,18.16-9.59,23.15-19.83,19.4-39.71,39.23-79.21,59-118.77,1.82-3.64,4-7.11,7.4-13.14,3.82,5.88,7.06,10,9.36,14.54,19.54,38.77,39.48,77.34,58,116.59,6.52,13.82,15.11,19.36,30.19,21.15,47.11,5.59,94,13,143.87,20.1-5.18,6.61-8.1,11.29-11.93,15.06-30.42,29.92-60.43,60.3-91.84,89.15-12.18,11.18-14.53,21.8-11.51,37.45C389.46,388.63,396.74,435.54,404.68,482.33Z" transform="translate(-16.25 -28)" style="fill:#ef4438"/></g></svg>